<?xml version="1.0" encoding="UTF-8"?>
<svg version="1.1" xmlns="http://www.w3.org/2000/svg" width="834" height="834">
<path d="M0 0 C275.22 0 550.44 0 834 0 C834 71.94 834 143.88 834 218 C828.06 218 822.12 218 816 218 C816 152 816 86 816 18 C552.33 18 288.66 18 17 18 C17 281.67 17 545.34 17 817 C280.67 817 544.34 817 816 817 C816 751 816 685 816 617 C821.94 617 827.88 617 834 617 C834 688.61 834 760.22 834 834 C558.78 834 283.56 834 0 834 C0 558.78 0 283.56 0 0 Z " fill="#fff" transform="translate(0,0)"/>
<path d="M0 0 C7.26 0 14.52 0 22 0 C22.00808685 1.94977249 22.01617371 3.89954498 22.02450562 5.90840149 C22.10221015 24.34187137 22.1898965 42.77527037 22.28752708 61.20864582 C22.33746012 70.68392161 22.38390371 80.15918958 22.421875 89.63452148 C22.4550141 97.90175252 22.49496278 106.16891916 22.54279006 114.43607873 C22.5678394 118.80570816 22.58968177 123.17529608 22.60334396 127.54497719 C21.38920745 171.06045684 21.38920745 171.06045684 40.25 208.8125 C56.24161236 223.7000144 78.16311649 223.70850588 98.59277344 223.17919922 C111.19387826 222.51645839 125.06251264 217.53321993 134.4140625 208.8203125 C149.33578192 191.69341287 151.12374215 170.56209291 151.20532227 148.83178711 C151.21491537 147.20486205 151.22492626 145.57793942 151.23532104 143.95101929 C151.2622211 139.55707983 151.28331077 135.16312981 151.30332303 130.76915431 C151.32527513 126.16872048 151.35261845 121.56831869 151.37937927 116.96791077 C151.42918198 108.26652491 151.4741666 99.56512115 151.51740164 90.86370045 C151.56688055 80.95313917 151.62175898 71.04261007 151.67708123 61.13207996 C151.79071044 40.75474981 151.89739906 20.3773884 152 0 C159.26 0 166.52 0 174 0 C174.069671 21.59358606 174.12309807 43.18714471 174.15543652 64.78082085 C174.17085594 74.80883504 174.19185042 84.83677778 174.22631836 94.86474609 C174.25637243 103.61278813 174.27561071 112.36077839 174.28226548 121.10887063 C174.28615083 125.73396035 174.29517718 130.35890202 174.31719017 134.98394394 C174.33780931 139.35222324 174.34378344 143.72029588 174.33932304 148.08861923 C174.34013704 149.67750173 174.34594933 151.26639237 174.35761642 152.85523224 C174.52905512 177.44332842 169.91016455 203.46270565 152.2265625 221.796875 C151.49179687 222.52390625 150.75703125 223.2509375 150 224 C149.40960937 224.62390625 148.81921875 225.2478125 148.2109375 225.890625 C135.373922 238.44488685 114.75637179 244.09513345 97.28515625 244.203125 C96.55235947 244.20882507 95.81956268 244.21452515 95.06455994 244.22039795 C93.51562929 244.22980713 91.966679 244.23636562 90.41772461 244.24023438 C88.10036966 244.24984298 85.78394056 244.28086326 83.46679688 244.3125 C61.15962962 244.47171126 39.89571107 238.88263821 23.19140625 223.34375 C3.15294107 201.91223644 -0.37041579 172.37392134 -0.22705078 144.29077148 C-0.22648462 142.7020773 -0.22680722 141.1133826 -0.22793579 139.52468872 C-0.2285023 135.27165126 -0.21686365 131.01872998 -0.20278788 126.76571918 C-0.19016161 122.29882084 -0.18910075 117.83191892 -0.18673706 113.36500549 C-0.18055686 104.93300455 -0.16419361 96.50105637 -0.14403808 88.06907851 C-0.12157045 78.4582337 -0.11065851 68.84738619 -0.10064721 59.2365216 C-0.07982373 39.49098432 -0.04430632 19.74549737 0 0 Z " fill="#fff" transform="translate(559,290)"/>
<path d="M0 0 C7.59 0 15.18 0 23 0 C23 71.94 23 143.88 23 218 C49.73 218 76.46 218 104 218 C104 224.6 104 231.2 104 238 C69.68 238 35.36 238 0 238 C0 159.46 0 80.92 0 0 Z " fill="#fff" transform="translate(110,290)"/>
<path d="M0 0 C1.01191406 -0.020625 2.02382813 -0.04125 3.06640625 -0.0625 C9.36289484 -0.09516661 14.00716967 0.63962258 19.75 3.25 C19.16509121 9.39154225 18.20933748 15.25679849 16.75 21.25 C15.5125 20.92 14.275 20.59 13 20.25 C6.08369728 18.73125422 -0.89892263 18.29254932 -7.75 20.25 C-14.19064163 25.4025133 -15.28176121 33.4566496 -16.25 41.25 C-16.56254778 46.71180193 -16.62194168 52.16794939 -16.6640625 57.63671875 C-16.68281321 59.19042443 -16.70238939 60.74412034 -16.7227478 62.29780579 C-16.77366343 66.3500284 -16.81350377 70.40228389 -16.85089111 74.45465088 C-16.89829626 79.33666137 -16.95971704 84.21851398 -17.01873779 89.1003952 C-17.10645428 96.48353163 -17.17657224 103.86664546 -17.25 111.25 C-7.02 111.25 3.21 111.25 13.75 111.25 C13.75 116.86 13.75 122.47 13.75 128.25 C3.52 128.25 -6.71 128.25 -17.25 128.25 C-17.25 170.16 -17.25 212.07 -17.25 255.25 C-24.18 255.25 -31.11 255.25 -38.25 255.25 C-38.25 213.34 -38.25 171.43 -38.25 128.25 C-47.16 128.25 -56.07 128.25 -65.25 128.25 C-65.25 122.64 -65.25 117.03 -65.25 111.25 C-56.34 111.25 -47.43 111.25 -38.25 111.25 C-38.27320313 106.92261719 -38.29640625 102.59523438 -38.3203125 98.13671875 C-38.33322549 94.62891503 -38.34405289 91.12111826 -38.35350037 87.61330414 C-38.36394689 83.94210329 -38.37784085 80.27099877 -38.40087891 76.59985352 C-38.73114238 22.45745384 -38.73114238 22.45745384 -28.5625 9.0625 C-20.51231036 1.0959487 -10.67993792 0.05360069 0 0 Z " fill="#fff" transform="translate(397.25,272.75)"/>
<path d="M0 0 C6.93 0 13.86 0 21 0 C21 19.8 21 39.6 21 60 C30.57 60 40.14 60 50 60 C50 65.61 50 71.22 50 77 C40.43 77 30.86 77 21 77 C21 118.91 21 160.82 21 204 C14.07 204 7.14 204 0 204 C0 162.09 0 120.18 0 77 C-8.58 77 -17.16 77 -26 77 C-26 71.39 -26 65.78 -26 60 C-17.42 60 -8.84 60 0 60 C0 40.2 0 20.4 0 0 Z " fill="#fff" transform="translate(461,324)"/>
<path d="M0 0 C7.26 0 14.52 0 22 0 C22 47.52 22 95.04 22 144 C14.74 144 7.48 144 0 144 C0 96.48 0 48.96 0 0 Z " fill="#fff" transform="translate(262,384)"/>
<path d="M0 0 C4.25668333 2.16849906 7.57273392 4.83897244 10 9 C11.65913698 14.2664219 11.11538554 18.90384392 9 24 C5.84477479 27.64064447 3.01521503 30.76861349 -1.92578125 31.3359375 C-13.41082597 31.4684063 -13.41082597 31.4684063 -18 27 C-21.15177828 23.08744765 -21.96217016 18.94625149 -22 14 C-21.28819345 8.20386093 -18.91463345 4.92518169 -14.48828125 1.32421875 C-9.89608918 -1.11966368 -5.02535557 -0.95655044 0 0 Z " fill="#fff" transform="translate(279,312)"/>
</svg>
